<svg xmlns="http://www.w3.org/2000/svg" width="256.655" height="60" viewBox="0 0 256.655 60"><defs><style>.a{fill:#08708b;}.b{fill:#58ebdd;}.c{fill:#48a5b0;}</style></defs><g transform="translate(2813 -3096)"><g transform="translate(-2813 3096)"><path class="a" d="M172.854,120a3.431,3.431,0,0,1,2.362-.856c2.341-.265,4.512.073,6.146,2,.213.251.383.539.6.853a11.693,11.693,0,0,1,8.156-2.934,9.736,9.736,0,0,1,7.827,3.453c.85-.631,1.631-1.319,2.51-1.843,3.64-2.171,9.56-2.336,13.167.55a10.1,10.1,0,0,1,3.819,7.311c.168,1.956.117,3.933.132,5.9.018,2.544.006,5.089,0,7.633,0,.977-.189,1.164-1.158,1.166-1.261,0-2.522,0-3.783,0-.816,0-1.021-.2-1.021-1.017,0-3.806.023-7.611-.02-11.417a9.583,9.583,0,0,0-.4-2.738,5.758,5.758,0,0,0-7.644-3.482,5.153,5.153,0,0,0-3.076,4.26,10.87,10.87,0,0,0-.117,1.719c-.009,3.849,0,7.7-.006,11.549,0,.954-.171,1.124-1.111,1.127q-1.859,0-3.717,0c-.931,0-1.129-.193-1.13-1.126,0-3.783.039-7.567-.027-11.35a10.256,10.256,0,0,0-.564-3.3c-.9-2.444-3.18-3.6-5.958-3.2a5.415,5.415,0,0,0-4.637,4.773,14.056,14.056,0,0,0-.1,1.653q-.012,5.675,0,11.351c0,1.057-.138,1.195-1.175,1.2q-1.792,0-3.584,0c-1.024,0-1.195-.167-1.195-1.192q0-7.634,0-15.268c0-2.146-.6-2.673-2.727-2.437-.535.06-1.1.237-1.57-.223Z" transform="translate(-90.893 -98.604)"/><path class="a" d="M316.331,136.105c.136-.27.236-.462.328-.657,2.292-4.877,4.03-9.312,6.3-14.2a1.4,1.4,0,0,1,1.475-.946c1.348.038,2.7,0,4.048.015.86.007,1.054.306.689,1.066-3.473,7.228-6.389,14.012-9.859,21.239a1.122,1.122,0,0,1-1.14.723h-3.65a1.124,1.124,0,0,1-1.151-.705c-3.469-7.229-6.353-14.015-9.823-21.242-.372-.775-.186-1.073.666-1.081,1.393-.014,2.787.018,4.181-.014a1.358,1.358,0,0,1,1.432.907c2.232,4.881,3.9,9.309,6.156,14.179C316.078,135.6,316.187,135.811,316.331,136.105Z" transform="translate(-101.85 -98.709)"/><path class="a" d="M294.549,134.386c0-3.517,0-2.62,0-6.137,0-.983.172-1.155,1.154-1.159,1.239,0,2.478-.006,3.716,0,.859.005,1.086.215,1.086,1.047,0,7.122,0,7.6,0,14.726,0,.841-.222,1.043-1.074,1.047-1.216,0-2.433,0-3.65,0-1.1,0-1.233-.126-1.233-1.2C294.549,139.192,294.549,137.9,294.549,134.386Z" transform="translate(-101.11 -99.279)"/><path class="a" d="M237.743,143.228a13.525,13.525,0,0,1-8.647-2.949,11.076,11.076,0,0,1-3.905-7.823,12.608,12.608,0,0,1,1.469-7.565,11.367,11.367,0,0,1,8.78-5.658,14.6,14.6,0,0,1,8.112.977,10.84,10.84,0,0,1,6.649,8.861,12.65,12.65,0,0,1-1.323,8.152,11.064,11.064,0,0,1-7.9,5.6C239.92,143.039,238.824,143.1,237.743,143.228Zm-6.855-12.379c0,7.044,6.3,8.516,10.109,6.618,2.691-1.341,3.64-3.732,3.571-6.585-.154-6.361-5.955-7.939-9.861-6.228C231.975,125.85,230.984,128.2,230.889,130.849Z" transform="translate(-95.281 -98.604)"/><path class="a" d="M360.826,142.391q-.187-1.536-.368-3.074a.631.631,0,0,0-.778-.643c-.491.053-.982.137-1.474.157-1.416.054-2.018-.53-2.023-1.948,0-.649,0-1.253,0-1.842,0-1.477,0-2.842,0-4.473,0-.423,0-.846,0-1.271,0-2.439,0-4.877,0-7.316,0-.558-.118-1.022-.773-1.033-1.421-.023-2.841-.018-4.26,0a.684.684,0,0,0-.741.568,1.141,1.141,0,0,0-.032.261c0,.142-.016.285-.027.45-5.586-3.971-14.1-1.636-17.25,3.188a12.216,12.216,0,0,0-.9,1.681c-.038.094-.093.186-.129.281-.1.232-.155.474-.236.709a12.049,12.049,0,0,0,.07,8.188c.092.244.159.5.267.735.021.051.044.1.065.155a11.717,11.717,0,0,0,2.318,3.315c3.835,3.84,12.044,5.09,16.858.649.18.178.352.365.524.552a6.9,6.9,0,0,0,1.262,1.175c2.263,1.474,4.692,1.277,7.131.477A.776.776,0,0,0,360.826,142.391Zm-13.7-3.995a7.04,7.04,0,0,1-1.014.4,7.515,7.515,0,0,1-5.208-.244,7.239,7.239,0,0,1-2.933-2.677,8.354,8.354,0,0,1-.955-4.095,8.751,8.751,0,0,1,.5-2.728c.064-.157.129-.313.2-.462.025-.055.049-.11.077-.163a6.361,6.361,0,0,1,2.67-2.635,7.372,7.372,0,0,1,.775-.362l.049-.018c.169-.065.339-.114.508-.165s.352-.1.531-.136l.1-.019c.22-.043.441-.075.665-.1.137-.013.275-.024.411-.027l.2-.009c3.383-.107,6.874,1.942,6.993,6.858C350.763,134.664,349.814,137.055,347.123,138.4Z" transform="translate(-104.183 -98.701)"/><g transform="translate(155.09 13.285)"><path class="a" d="M256.308,135.992a8.153,8.153,0,0,0,5.8,7.287c3,1.038,5.986.493,8.944-.252a1.028,1.028,0,0,0,.552-.828c-.121-1.14-.355-2.268-.562-3.4a.683.683,0,0,0-.868-.6,9.536,9.536,0,0,1-1.174.2,20.329,20.329,0,0,1-4.013,0c-1.806-.318-2.866-2.029-2.876-4.177-.006-1.287-.007-4.832-.007-8.645h-5.98C256.142,130.3,256.188,134.833,256.308,135.992Z" transform="translate(-252.974 -112.436)"/><path class="a" d="M262.108,112.21c0-.739-.218-.966-.932-.971q-2.058-.014-4.115,0c-.673.006-.909.243-.914.932,0,.559-.016,3.071-.021,6.241h5.983C262.11,115.358,262.111,112.864,262.108,112.21Z" transform="translate(-252.974 -111.232)"/><path class="a" d="M280.188,112.21c0-.739-.219-.966-.932-.971q-2.058-.014-4.115,0c-.673.006-.91.243-.914.932,0,.559-.016,3.071-.022,6.241h5.984C280.19,115.358,280.19,112.864,280.188,112.21Z" transform="translate(-254.492 -111.232)"/><path class="a" d="M274.388,135.992a8.152,8.152,0,0,0,5.8,7.287c3,1.038,5.987.493,8.945-.252a1.03,1.03,0,0,0,.552-.828c-.121-1.14-.355-2.268-.562-3.4a.682.682,0,0,0-.868-.6,9.507,9.507,0,0,1-1.174.2,20.319,20.319,0,0,1-4.012,0c-1.807-.318-2.867-2.029-2.877-4.177-.006-1.287-.006-4.832-.006-8.645h-5.98C274.222,130.3,274.267,134.833,274.388,135.992Z" transform="translate(-254.492 -112.436)"/><path class="b" d="M294.315,119.085v-.015h-40.9a.734.734,0,0,0-.731.737v4.487a.734.734,0,0,0,.731.737h40.9v-.015a2.983,2.983,0,0,0,0-5.931Z" transform="translate(-252.685 -111.89)"/></g><path class="a" d="M300.51,122.05a2.98,2.98,0,1,1-2.98-2.98A2.981,2.981,0,0,1,300.51,122.05Z" transform="translate(-101.11 -98.606)"/><g transform="translate(0 0)"><path class="a" d="M119.171,133.06a6.563,6.563,0,0,1-6.374-8.312l.031-.125-3.021,12.249a6.183,6.183,0,0,0-.291,2.164,6.607,6.607,0,0,0,13.019,1.365c.116-.442,1.864-7.55,3.016-12.251l.027-.107c-.053.205-.13.4-.2.6A6.547,6.547,0,0,1,119.171,133.06Z" transform="translate(-85.575 -99.072)"/><path class="a" d="M115.877,105.948a19.912,19.912,0,0,1,2.8-3.273c.112-.106.236-.2.351-.3-.061-.06-.115-.126-.178-.185a19.786,19.786,0,0,0-32.82,9.46c-.046.162-2.108,8.665-2.108,8.665a12.826,12.826,0,0,0-.542,3.013,6.6,6.6,0,0,0,6.6,6.6,6.682,6.682,0,0,0,6.329-4.708c.394-1.465,1.979-8.1,2.353-9.6,1.371-5.482,5.66-6.164,8.266-5.432,4.362,1.226,5.363,5.282,4.549,8.645l1.91-7.791A19.9,19.9,0,0,1,115.877,105.948Z" transform="translate(-83.381 -96.73)"/><path class="b" d="M135.562,97.265a19.679,19.679,0,0,0-13.266,5.151,19.721,19.721,0,0,1,6.007,14.17,18.354,18.354,0,0,1-.68,5.164c-.027.124-.432,1.786-.974,4,0-.009.006-.017.009-.027s1.988-8.118,2.346-9.591c1.015-4.057,3.8-5.553,6.533-5.642,4.219-.137,7.493,3.852,6.329,8.511-.19.791-7.2,29-7.2,29a9.111,9.111,0,0,0-.3,2.21A6.62,6.62,0,0,0,147.4,151.78c.223-.857,7.149-28.953,7.233-29.339a23.086,23.086,0,0,0,.741-5.364A19.812,19.812,0,0,0,135.562,97.265Z" transform="translate(-86.648 -96.775)"/><path class="c" d="M113.978,120.851l-.846,3.455.834-3.382C113.972,120.9,113.973,120.875,113.978,120.851Z" transform="translate(-85.879 -98.755)"/><path class="c" d="M127.511,117.058a19.721,19.721,0,0,0-6.007-14.17c-.115.1-.239.2-.351.3a19.737,19.737,0,0,0-5.287,8.36l-1.91,7.791c-.006.024-.006.049-.013.073l-.834,3.382-.031.125a6.588,6.588,0,0,0,12.579,3.892c.071-.2.147-.392.2-.6.541-2.21.947-3.872.974-4A18.355,18.355,0,0,0,127.511,117.058Z" transform="translate(-85.855 -97.247)"/></g></g></g></svg>